<svg width="28" height="26" viewBox="0 0 28 26" fill="none" xmlns="http://www.w3.org/2000/svg">
<g id="vk-brands" clip-path="url(#clip0_111_2184)">
<path id="Vector" d="M26.489 6.24695C26.6689 5.6366 26.489 5.18738 25.6238 5.18738H22.7606C22.0314 5.18738 21.696 5.57312 21.5161 6.00281C21.5161 6.00281 20.0578 9.57214 17.9967 11.8866C17.3307 12.5555 17.0245 12.7704 16.6599 12.7704C16.48 12.7704 16.2029 12.5555 16.2029 11.9452V6.24695C16.2029 5.51453 15.9988 5.18738 15.396 5.18738H10.8946C10.4376 5.18738 10.1654 5.52917 10.1654 5.84656C10.1654 6.53992 11.196 6.70105 11.3029 8.65417V12.8925C11.3029 13.8202 11.1376 13.9911 10.7731 13.9911C9.80084 13.9911 7.43834 10.4071 6.03834 6.30554C5.7564 5.50964 5.47931 5.18738 4.74529 5.18738H1.88209C1.06542 5.18738 0.900146 5.57312 0.900146 6.00281C0.900146 6.76453 1.87237 10.5487 5.42584 15.5487C7.7932 18.9618 11.1279 20.8124 14.1613 20.8124C15.9842 20.8124 16.2078 20.4022 16.2078 19.6942C16.2078 16.4325 16.0425 16.1249 16.9564 16.1249C17.3793 16.1249 18.1085 16.3397 19.8099 17.9852C21.7543 19.9384 22.0751 20.8124 23.164 20.8124H26.0272C26.8439 20.8124 27.2571 20.4022 27.0189 19.5917C26.4745 17.8876 22.7946 14.3817 22.6293 14.1473C22.2064 13.6005 22.3279 13.3563 22.6293 12.868C22.6342 12.8632 26.1293 7.92175 26.489 6.24695Z" fill="white"/>
</g>
<defs>
<clipPath id="clip0_111_2184">
<rect width="28" height="25" fill="white" transform="translate(-0.00415039 0.5)"/>
</clipPath>
</defs>
</svg>
