<svg width="21" height="21" viewBox="0 0 21 21" fill="none" xmlns="http://www.w3.org/2000/svg">
<g id="t-shirt 1" clip-path="url(#clip0_111_18948)">
<g id="Group">
<path id="Vector" d="M20.3716 7.86821L17.5769 4.28145C16.8973 3.40932 15.8735 2.90918 14.7678 2.90918H12.9245C12.669 2.90918 12.4407 3.06879 12.353 3.30882C12.0698 4.08332 11.3252 4.60372 10.5001 4.60372C9.67501 4.60372 8.9305 4.08332 8.64727 3.30882C8.55955 3.06879 8.33126 2.90918 8.07575 2.90918H6.2323C5.12674 2.90918 4.10282 3.40932 3.42325 4.28154L0.628638 7.86821C0.50719 8.02409 0.468938 8.22917 0.526141 8.41834C0.583345 8.60751 0.728787 8.75712 0.916306 8.81954L4.78996 10.1101V17.7327C4.78996 18.0688 5.06241 18.3413 5.3985 18.3413H15.6017C15.9378 18.3413 16.2103 18.0688 16.2103 17.7327V10.1101L20.0839 8.81954C20.2714 8.75712 20.4169 8.60751 20.4741 8.41834C20.5313 8.22917 20.493 8.02409 20.3716 7.86821ZM16.2103 8.82728V7.93272C16.2103 7.59663 15.9378 7.32417 15.6017 7.32417C15.2656 7.32417 14.9932 7.59663 14.9932 7.93272V17.1242H6.00696V7.93272C6.00696 7.59663 5.73451 7.32417 5.39842 7.32417C5.06232 7.32417 4.78987 7.59663 4.78987 7.93272V8.82728L2.11783 7.93706L4.38328 5.02961C4.83064 4.45549 5.50448 4.12627 6.2323 4.12627H7.68246C8.22972 5.15488 9.31345 5.82072 10.5 5.82072C11.6866 5.82072 12.7703 5.1548 13.3177 4.12627H14.7678C15.4956 4.12627 16.1695 4.45549 16.6169 5.02952L18.8824 7.93706L16.2103 8.82728Z" fill="url(#paint0_linear_111_18948)"/>
</g>
</g>
<defs>
<linearGradient id="paint0_linear_111_18948" x1="-10.6249" y1="-7.80755" x2="23.9684" y2="-2.48076" gradientUnits="userSpaceOnUse">
<stop stop-color="#F64D4D"/>
<stop offset="1" stop-color="#4D5EF6"/>
</linearGradient>
<clipPath id="clip0_111_18948">
<rect width="20" height="20" fill="white" transform="translate(0.5 0.625)"/>
</clipPath>
</defs>
</svg>
